<svg width="25" height="24" viewBox="0 0 25 24" fill="none" xmlns="http://www.w3.org/2000/svg">
<path d="M12.5763 17.303C12.1858 17.6935 11.5527 17.6935 11.1622 17.303L7.62588 13.7675C7.23556 13.3772 7.2353 12.7445 7.62531 12.354C8.01567 11.963 8.64909 11.9628 9.03973 12.3535L11.5157 14.8294C11.711 15.0247 12.0276 15.0247 12.2228 14.8294L19.6473 7.40405C20.0377 7.01356 20.6708 7.01354 21.0613 7.40401C21.4517 7.79447 21.4517 8.42752 21.0613 8.81797L12.5763 17.303ZM8.33323 17.303C7.94278 17.6935 7.30973 17.6935 6.91923 17.3031L3.38338 13.768C2.99282 13.3775 2.99268 12.7444 3.38306 12.3537C3.7736 11.9629 4.40705 11.9628 4.79773 12.3535L8.33323 15.889C8.72372 16.2794 8.72372 16.9125 8.33323 17.303ZM12.2227 13.4146C12.0275 13.6098 11.711 13.6098 11.5157 13.4147L10.8081 12.7075C10.6127 12.5123 10.6126 12.1956 10.8079 12.0003L16.1113 6.69699C16.5018 6.30648 17.1349 6.30637 17.5255 6.69674C17.9164 7.0873 17.9165 7.72079 17.5258 8.11149L12.2227 13.4146Z" fill="white"/>
</svg>
