<svg width="16" height="18" viewBox="0 0 16 18" fill="none" xmlns="http://www.w3.org/2000/svg">
<path fill-rule="evenodd" clip-rule="evenodd" d="M9.26719 0.707159C9.21221 0.307804 8.86481 0 8.44445 0C7.98587 0 7.61413 0.366312 7.61413 0.818182V15.1999L2.36299 10.0047L2.27003 9.92528C1.94548 9.68696 1.48414 9.71243 1.18875 10.0023C0.863817 10.3212 0.862729 10.8392 1.18632 11.1594L7.84479 17.7477C7.88291 17.787 7.92497 17.8224 7.97032 17.8536C8.29458 18.0766 8.7444 18.0452 9.03328 17.7593L15.7024 11.1593L15.7826 11.0674C16.0231 10.7466 15.9953 10.2921 15.6999 10.0023C15.3749 9.68342 14.8492 9.68454 14.5256 10.0047L9.27477 15.2012V0.818182L9.26719 0.707159Z" fill="white"/>
</svg>
