<svg width="14" height="14" viewBox="0 0 14 14" fill="none" xmlns="http://www.w3.org/2000/svg">
<path fill-rule="evenodd" clip-rule="evenodd" d="M6.94736 0.439453C3.4726 0.439453 0.655762 3.19408 0.655762 6.59209C0.655762 9.9901 3.4726 12.7447 6.94736 12.7447C8.43367 12.7447 9.7996 12.2407 10.8762 11.398L12.9215 13.3929L12.9759 13.4387C13.1658 13.5761 13.4349 13.5605 13.6067 13.392C13.7957 13.2067 13.7953 12.9067 13.6058 12.7219L11.5845 10.7504C12.6119 9.65533 13.239 8.19532 13.239 6.59209C13.239 3.19408 10.4221 0.439453 6.94736 0.439453ZM6.94799 1.38717C9.88754 1.38717 12.2705 3.71751 12.2705 6.59213C12.2705 9.46676 9.88754 11.7971 6.94799 11.7971C4.00844 11.7971 1.62547 9.46676 1.62547 6.59213C1.62547 3.71751 4.00844 1.38717 6.94799 1.38717Z" fill="white"/>
</svg>
