<svg width="48" height="49" viewBox="0 0 48 49" fill="none" xmlns="http://www.w3.org/2000/svg">
<g filter="url(#filter0_b_720_1699)">
<rect y="0.5" width="48" height="48" rx="24" fill="white" fill-opacity="0.2"/>
<path d="M25 25.5V30.5C25 31.0523 24.5523 31.5 24 31.5C23.4477 31.5 23 31.0523 23 30.5V25.5H18C17.4477 25.5 17 25.0523 17 24.5C17 23.9477 17.4477 23.5 18 23.5H23V18.5C23 17.9477 23.4477 17.5 24 17.5C24.5523 17.5 25 17.9477 25 18.5V23.5H30C30.5523 23.5 31 23.9477 31 24.5C31 25.0523 30.5523 25.5 30 25.5H25Z" fill="white"/>
</g>
<defs>
<filter id="filter0_b_720_1699" x="-8" y="-7.5" width="64" height="64" filterUnits="userSpaceOnUse" color-interpolation-filters="sRGB">
<feFlood flood-opacity="0" result="BackgroundImageFix"/>
<feGaussianBlur in="BackgroundImageFix" stdDeviation="4"/>
<feComposite in2="SourceAlpha" operator="in" result="effect1_backgroundBlur_720_1699"/>
<feBlend mode="normal" in="SourceGraphic" in2="effect1_backgroundBlur_720_1699" result="shape"/>
</filter>
</defs>
</svg>
