<svg width="16" height="16" viewBox="0 0 16 16" fill="none" xmlns="http://www.w3.org/2000/svg">
<path fill-rule="evenodd" clip-rule="evenodd" d="M14.9142 0.981586C15.1387 0.757035 15.1387 0.392965 14.9142 0.168414C14.6896 -0.0561379 14.3255 -0.0561379 14.101 0.168414L7.54129 6.72812L0.981586 0.168414C0.757035 -0.0561379 0.392965 -0.0561379 0.168414 0.168414C-0.0561379 0.392965 -0.0561379 0.757035 0.168414 0.981586L6.72812 7.54129L0.168414 14.101C-0.0561379 14.3255 -0.0561379 14.6896 0.168414 14.9142C0.392965 15.1387 0.757035 15.1387 0.981586 14.9142L7.54129 8.35447L14.101 14.9142C14.3255 15.1387 14.6896 15.1387 14.9142 14.9142C15.1387 14.6896 15.1387 14.3255 14.9142 14.101L8.35447 7.54129L14.9142 0.981586Z" fill="black"/>
</svg>
