<svg width="36" height="36" viewBox="0 0 36 36" fill="none" xmlns="http://www.w3.org/2000/svg">
<g clip-path="url(#clip0_720_3915)">
<path d="M17.9985 23.7955C21.2044 23.7955 23.8033 21.1978 23.8033 17.9933C23.8033 14.7889 21.2044 12.1912 17.9985 12.1912C14.7925 12.1912 12.1936 14.7889 12.1936 17.9933C12.1936 21.1978 14.7925 23.7955 17.9985 23.7955Z" fill="white"/>
<path d="M20.9539 8.8424C19.9875 9.05513 19.0039 9.18052 18.015 9.21706C17.4283 9.23575 16.844 9.13452 16.2978 8.91958C15.7517 8.70465 15.2552 8.38052 14.8387 7.96706C14.4223 7.5536 14.0947 7.05951 13.876 6.51507C13.6573 5.97062 13.552 5.38728 13.5668 4.80077C13.5962 3.80285 13.7162 2.80965 13.925 1.83337C14.0039 1.46841 14.1698 1.12786 14.4084 0.840637C14.6471 0.55341 14.9516 0.327989 15.2961 0.183501C15.6405 0.0390134 16.0148 -0.0202776 16.3871 0.0106724C16.7593 0.0416224 17.1186 0.161894 17.4345 0.361278C19.4271 1.63097 21.1238 3.31337 22.4101 5.29478C22.6182 5.6103 22.746 5.97184 22.7826 6.34799C22.8191 6.72413 22.7631 7.10349 22.6196 7.45311C22.4761 7.80274 22.2494 8.11205 21.9591 8.35417C21.6688 8.59628 21.3237 8.76389 20.9539 8.8424Z" fill="#FF0018"/>
<path d="M30.4738 4.99321C30.9762 7.30256 30.9762 9.69287 30.4738 12.0022C30.3938 12.3668 30.227 12.7068 29.9876 12.9932C29.7481 13.2797 29.4431 13.5042 29.0984 13.6477C28.7536 13.7912 28.3793 13.8494 28.0072 13.8175C27.6352 13.7856 27.2763 13.6645 26.961 13.4644C26.1181 12.9295 25.3263 12.318 24.596 11.6375C24.1678 11.2362 23.8261 10.7518 23.5919 10.2139C23.3576 9.67605 23.2356 9.096 23.2334 8.50935C23.2313 7.92269 23.3489 7.34177 23.5792 6.80217C23.8095 6.26256 24.1476 5.77562 24.5727 5.37118C25.2898 4.69329 26.067 4.08182 26.8947 3.54432C27.2105 3.32973 27.5744 3.1963 27.9541 3.15588C28.3339 3.11545 28.7177 3.16927 29.0717 3.31256C29.4256 3.45584 29.7388 3.68418 29.9833 3.97734C30.2279 4.2705 30.3964 4.61942 30.4738 4.99321Z" fill="#FF0018"/>
<path d="M35.6384 17.4298C34.3687 19.422 32.6854 21.1181 30.7026 22.4031C30.3862 22.6111 30.0238 22.7386 29.6469 22.7745C29.2699 22.8105 28.8899 22.7537 28.5399 22.6092C28.19 22.4647 27.8807 22.2368 27.639 21.9455C27.3973 21.6541 27.2306 21.3081 27.1533 20.9376C26.9403 19.9728 26.8149 18.9907 26.7785 18.0034C26.7612 17.4181 26.8634 16.8354 27.0788 16.2909C27.2943 15.7464 27.6185 15.2515 28.0316 14.8363C28.4448 14.4212 28.9382 14.0946 29.4818 13.8764C30.0255 13.6582 30.6078 13.553 31.1935 13.5672C32.1974 13.5956 33.1967 13.7155 34.1788 13.9253C34.5423 14.006 34.881 14.173 35.1664 14.4121C35.4518 14.6511 35.6755 14.9553 35.8186 15.2989C35.9617 15.6425 36.02 16.0155 35.9886 16.3863C35.9573 16.7572 35.8371 17.1151 35.6384 17.4298Z" fill="#FF862B"/>
<path d="M22.4066 31.2356C22.3645 32.2339 22.2302 33.2261 22.0052 34.1997C21.9209 34.5629 21.7503 34.9005 21.5079 35.1838C21.2654 35.4672 20.9582 35.688 20.6123 35.8275C20.2664 35.967 19.8919 36.0212 19.5206 35.9855C19.1493 35.9497 18.7921 35.825 18.4792 35.622C16.5018 34.3256 14.8264 32.6193 13.5666 30.6189C13.3628 30.2998 13.2401 29.9357 13.2093 29.5583C13.1786 29.1809 13.2406 28.8018 13.3901 28.4539C13.5396 28.106 13.772 27.7999 14.067 27.5624C14.362 27.3249 14.7106 27.1631 15.0825 27.0912C16.0513 26.8925 17.036 26.7815 18.0248 26.7596C18.6111 26.7497 19.1933 26.8595 19.7358 27.0822C20.2782 27.3048 20.7696 27.6358 21.1797 28.0547C21.5899 28.4737 21.9102 28.9719 22.1211 29.5188C22.3321 30.0657 22.4292 30.6499 22.4066 31.2356Z" fill="#FFA900"/>
<path d="M11.4073 30.6123C10.691 31.2921 9.91376 31.9047 9.08536 32.4424C8.77001 32.6519 8.4082 32.7811 8.03145 32.8187C7.65471 32.8564 7.27445 32.8014 6.92383 32.6585C6.57322 32.5157 6.26287 32.2893 6.01984 31.9991C5.77681 31.7089 5.60848 31.3637 5.52949 30.9935C5.02154 28.6865 5.01588 26.2973 5.51291 23.9878C5.59246 23.6229 5.75893 23.2826 5.9982 22.9958C6.23746 22.7089 6.54244 22.484 6.88725 22.3402C7.23205 22.1963 7.60649 22.1378 7.97877 22.1695C8.35106 22.2012 8.71018 22.3223 9.02566 22.5224C9.86681 23.0583 10.6573 23.6698 11.3874 24.3492C11.8148 24.7507 12.1558 25.2351 12.3895 25.7728C12.6232 26.3105 12.7447 26.8902 12.7465 27.4765C12.7484 28.0627 12.6306 28.6432 12.4003 29.1824C12.17 29.7215 11.8322 30.2081 11.4073 30.6123Z" fill="#FFA900"/>
<path d="M13.4673 9.01487C12.93 9.8578 12.3171 10.6502 11.6363 11.3822C11.2348 11.8096 10.7504 12.1507 10.2126 12.3845C9.67474 12.6184 9.09483 12.7402 8.50831 12.7423C7.92179 12.7445 7.34101 12.6271 6.80146 12.3972C6.26191 12.1673 5.77496 11.8298 5.37037 11.4054C4.6909 10.6888 4.07803 9.91201 3.53935 9.0845C3.32834 8.76915 3.19789 8.4069 3.15942 8.02948C3.12095 7.65205 3.17564 7.27096 3.31869 6.91955C3.46174 6.56815 3.68878 6.25715 3.97996 6.01379C4.27113 5.77043 4.61756 5.60214 4.9889 5.52363C7.29807 5.0165 9.68915 5.00972 12.0012 5.50373C12.3662 5.58325 12.7067 5.74965 12.9937 5.9888C13.2806 6.22795 13.5056 6.53281 13.6495 6.87745C13.7935 7.2221 13.852 7.59636 13.8203 7.96847C13.7886 8.34059 13.6675 8.69954 13.4673 9.01487Z" fill="#00B598"/>
<path d="M31.0344 30.4532C28.7266 30.9677 26.3351 30.9802 24.0221 30.4896C23.6535 30.4144 23.3086 30.2508 23.0173 30.0128C22.7259 29.7749 22.4968 29.4697 22.3496 29.1236C22.2024 28.7775 22.1416 28.4008 22.1723 28.0259C22.2031 27.6511 22.3245 27.2894 22.5261 26.9719C23.0634 26.1289 23.6763 25.3366 24.3572 24.6046C24.7586 24.1772 25.243 23.8361 25.7809 23.6022C26.3187 23.3683 26.8986 23.2466 27.4851 23.2444C28.0716 23.2422 28.6524 23.3597 29.192 23.5896C29.7315 23.8194 30.2185 24.1569 30.6231 24.5814C31.3013 25.2981 31.913 26.075 32.4508 26.9022C32.6596 27.2151 32.7892 27.5741 32.8284 27.9482C32.8677 28.3223 32.8154 28.7003 32.676 29.0497C32.5366 29.3991 32.3144 29.7094 32.0284 29.9539C31.7424 30.1984 31.4013 30.3697 31.0344 30.4532Z" fill="#FF862B"/>
<path d="M4.81536 22.6075C3.8113 22.5808 2.8119 22.4609 1.83001 22.2495C1.46275 22.1699 1.12031 22.0024 0.832077 21.7614C0.543846 21.5204 0.31844 21.213 0.175226 20.8657C0.0320124 20.5185 -0.0247332 20.1416 0.00985917 19.7676C0.0444515 19.3936 0.169337 19.0336 0.373816 18.7184C1.6451 16.7242 3.33211 15.0278 5.31956 13.7451C5.63648 13.5421 5.99801 13.4192 6.37302 13.387C6.74803 13.3547 7.12527 13.414 7.47224 13.5599C7.81921 13.7057 8.12551 13.9337 8.36475 14.2241C8.60399 14.5146 8.76902 14.8588 8.84559 15.2272C9.0559 16.1901 9.18023 17.1698 9.21709 18.1548C9.23661 18.7403 9.13652 19.3236 8.9229 19.8692C8.70929 20.4147 8.38665 20.911 7.9747 21.3278C7.56274 21.7445 7.07011 22.0729 6.52691 22.2929C5.98371 22.513 5.40134 22.62 4.81536 22.6075Z" fill="#00B598"/>
</g>
<defs>
<clipPath id="clip0_720_3915">
<rect width="36" height="36" fill="white"/>
</clipPath>
</defs>
</svg>
