<svg width="161" height="36" viewBox="0 0 161 36" fill="none" xmlns="http://www.w3.org/2000/svg">
<g clip-path="url(#clip0_720_3904)">
<path d="M17.9985 23.7955C21.2044 23.7955 23.8033 21.1978 23.8033 17.9933C23.8033 14.7889 21.2044 12.1912 17.9985 12.1912C14.7925 12.1912 12.1936 14.7889 12.1936 17.9933C12.1936 21.1978 14.7925 23.7955 17.9985 23.7955Z" fill="white"/>
<path d="M20.9539 8.8424C19.9875 9.05513 19.0039 9.18052 18.015 9.21706C17.4283 9.23575 16.844 9.13452 16.2978 8.91958C15.7517 8.70465 15.2552 8.38051 14.8387 7.96706C14.4223 7.5536 14.0947 7.05951 13.876 6.51507C13.6573 5.97062 13.552 5.38728 13.5668 4.80077C13.5962 3.80285 13.7162 2.80965 13.925 1.83337C14.0039 1.46841 14.1698 1.12786 14.4084 0.840637C14.6471 0.55341 14.9516 0.327989 15.2961 0.183501C15.6405 0.0390135 16.0148 -0.0202776 16.3871 0.0106724C16.7593 0.0416224 17.1186 0.161894 17.4345 0.361278C19.4271 1.63097 21.1238 3.31337 22.4101 5.29478C22.6182 5.6103 22.746 5.97184 22.7826 6.34799C22.8191 6.72413 22.7631 7.10349 22.6196 7.45311C22.4761 7.80274 22.2494 8.11205 21.9591 8.35417C21.6688 8.59628 21.3237 8.76389 20.9539 8.8424V8.8424Z" fill="#FF0018"/>
<path d="M30.4738 4.99321C30.9762 7.30256 30.9762 9.69287 30.4738 12.0022C30.3938 12.3668 30.227 12.7068 29.9876 12.9932C29.7481 13.2797 29.4431 13.5042 29.0984 13.6477C28.7536 13.7912 28.3793 13.8494 28.0072 13.8175C27.6352 13.7856 27.2763 13.6645 26.961 13.4644C26.1181 12.9295 25.3263 12.318 24.596 11.6375C24.1678 11.2362 23.8261 10.7518 23.5919 10.2139C23.3576 9.67605 23.2356 9.096 23.2334 8.50935C23.2313 7.92269 23.3489 7.34177 23.5792 6.80217C23.8095 6.26256 24.1476 5.77562 24.5727 5.37118C25.2898 4.69329 26.067 4.08182 26.8947 3.54432C27.2105 3.32973 27.5744 3.1963 27.9541 3.15588C28.3339 3.11545 28.7177 3.16927 29.0717 3.31256C29.4256 3.45584 29.7388 3.68418 29.9833 3.97734C30.2279 4.2705 30.3964 4.61942 30.4738 4.99321Z" fill="#FF0018"/>
<path d="M35.6384 17.4298C34.3687 19.422 32.6854 21.1181 30.7026 22.4031C30.3862 22.6111 30.0238 22.7386 29.6469 22.7745C29.2699 22.8105 28.8899 22.7537 28.5399 22.6092C28.19 22.4647 27.8807 22.2369 27.639 21.9455C27.3973 21.6541 27.2306 21.3081 27.1533 20.9376C26.9403 19.9728 26.8149 18.9907 26.7785 18.0034C26.7612 17.4181 26.8634 16.8354 27.0788 16.2909C27.2943 15.7464 27.6185 15.2515 28.0316 14.8363C28.4448 14.4212 28.9382 14.0946 29.4818 13.8764C30.0255 13.6582 30.6078 13.553 31.1935 13.5672C32.1974 13.5956 33.1967 13.7155 34.1788 13.9253C34.5423 14.006 34.881 14.173 35.1664 14.4121C35.4518 14.6511 35.6755 14.9553 35.8186 15.2989C35.9617 15.6425 36.02 16.0155 35.9886 16.3863C35.9573 16.7572 35.8371 17.1151 35.6384 17.4298Z" fill="#FF862B"/>
<path d="M22.4066 31.2356C22.3645 32.2339 22.2302 33.2261 22.0052 34.1997C21.9209 34.5629 21.7503 34.9005 21.5079 35.1838C21.2654 35.4672 20.9582 35.688 20.6123 35.8275C20.2664 35.967 19.8919 36.0212 19.5206 35.9855C19.1493 35.9497 18.7921 35.825 18.4792 35.622C16.5018 34.3256 14.8264 32.6193 13.5666 30.6189C13.3628 30.2998 13.2401 29.9357 13.2093 29.5583C13.1786 29.1809 13.2406 28.8018 13.3901 28.4539C13.5396 28.106 13.772 27.7999 14.067 27.5624C14.362 27.3249 14.7106 27.1631 15.0825 27.0912C16.0513 26.8925 17.036 26.7815 18.0248 26.7596C18.6111 26.7497 19.1933 26.8595 19.7358 27.0822C20.2782 27.3048 20.7696 27.6358 21.1797 28.0547C21.5899 28.4737 21.9102 28.9719 22.1211 29.5188C22.3321 30.0657 22.4292 30.6499 22.4066 31.2356Z" fill="#FFA900"/>
<path d="M11.4073 30.6123C10.691 31.2921 9.91376 31.9047 9.08536 32.4424C8.77001 32.6519 8.4082 32.7811 8.03145 32.8187C7.65471 32.8564 7.27445 32.8014 6.92383 32.6585C6.57322 32.5157 6.26287 32.2893 6.01984 31.9991C5.77681 31.7089 5.60848 31.3637 5.52949 30.9935C5.02154 28.6865 5.01588 26.2973 5.51291 23.9878C5.59246 23.6229 5.75893 23.2826 5.9982 22.9958C6.23746 22.7089 6.54244 22.484 6.88725 22.3402C7.23205 22.1963 7.60649 22.1378 7.97877 22.1695C8.35106 22.2012 8.71018 22.3223 9.02566 22.5224C9.86681 23.0583 10.6573 23.6698 11.3874 24.3492C11.8148 24.7507 12.1558 25.2351 12.3895 25.7728C12.6232 26.3105 12.7447 26.8902 12.7465 27.4765C12.7484 28.0627 12.6306 28.6432 12.4003 29.1824C12.17 29.7215 11.8322 30.2081 11.4073 30.6123V30.6123Z" fill="#FFA900"/>
<path d="M13.4673 9.01487C12.93 9.8578 12.3171 10.6502 11.6363 11.3822C11.2348 11.8096 10.7504 12.1507 10.2126 12.3845C9.67474 12.6184 9.09483 12.7402 8.50831 12.7423C7.92179 12.7445 7.34101 12.6271 6.80146 12.3972C6.26191 12.1673 5.77496 11.8298 5.37037 11.4054C4.6909 10.6888 4.07803 9.91201 3.53935 9.0845C3.32834 8.76915 3.19789 8.4069 3.15942 8.02948C3.12095 7.65205 3.17564 7.27096 3.31869 6.91955C3.46174 6.56815 3.68878 6.25715 3.97996 6.01379C4.27113 5.77043 4.61756 5.60214 4.9889 5.52363C7.29807 5.0165 9.68915 5.00972 12.0012 5.50373C12.3662 5.58325 12.7067 5.74965 12.9937 5.9888C13.2806 6.22795 13.5056 6.53281 13.6495 6.87745C13.7935 7.2221 13.852 7.59636 13.8203 7.96847C13.7886 8.34059 13.6675 8.69954 13.4673 9.01487V9.01487Z" fill="#00B598"/>
<path d="M31.0344 30.4532C28.7266 30.9677 26.3351 30.9802 24.0221 30.4896C23.6535 30.4144 23.3086 30.2508 23.0173 30.0128C22.7259 29.7749 22.4968 29.4697 22.3496 29.1236C22.2024 28.7775 22.1416 28.4008 22.1723 28.0259C22.2031 27.6511 22.3245 27.2894 22.5261 26.9719C23.0634 26.1289 23.6763 25.3366 24.3572 24.6046C24.7586 24.1772 25.243 23.8361 25.7809 23.6022C26.3187 23.3683 26.8986 23.2466 27.4851 23.2444C28.0716 23.2422 28.6524 23.3597 29.192 23.5896C29.7315 23.8194 30.2185 24.1569 30.6231 24.5814C31.3013 25.2981 31.913 26.075 32.4508 26.9022C32.6596 27.2151 32.7892 27.5741 32.8284 27.9482C32.8677 28.3223 32.8154 28.7003 32.676 29.0497C32.5366 29.3991 32.3144 29.7094 32.0284 29.9539C31.7424 30.1984 31.4013 30.3697 31.0344 30.4532V30.4532Z" fill="#FF862B"/>
<path d="M4.81536 22.6075C3.8113 22.5808 2.8119 22.4609 1.83001 22.2495C1.46275 22.1699 1.12031 22.0024 0.832077 21.7614C0.543846 21.5204 0.31844 21.213 0.175226 20.8657C0.0320124 20.5185 -0.0247332 20.1416 0.00985917 19.7676C0.0444515 19.3936 0.169337 19.0336 0.373816 18.7184C1.6451 16.7242 3.33211 15.0278 5.31956 13.7451C5.63648 13.5421 5.99801 13.4192 6.37302 13.387C6.74803 13.3547 7.12527 13.414 7.47224 13.5599C7.81921 13.7057 8.12551 13.9337 8.36475 14.2241C8.60399 14.5146 8.76902 14.8588 8.84559 15.2272C9.0559 16.1901 9.18023 17.1698 9.21709 18.1548C9.23661 18.7403 9.13652 19.3236 8.9229 19.8692C8.70929 20.4147 8.38665 20.911 7.9747 21.3278C7.56274 21.7445 7.07011 22.0729 6.52691 22.2929C5.98371 22.513 5.40134 22.62 4.81536 22.6075V22.6075Z" fill="#00B598"/>
</g>
<path d="M53.92 9.868H57.664V26.5H53.92V9.868ZM61.2738 14.308C61.8818 14.132 62.6658 13.972 63.6258 13.828C64.5858 13.668 65.5938 13.588 66.6497 13.588C67.7218 13.588 68.6098 13.732 69.3138 14.02C70.0338 14.292 70.6018 14.684 71.0178 15.196C71.4338 15.708 71.7298 16.316 71.9058 17.02C72.0818 17.724 72.1698 18.508 72.1698 19.372V26.5H68.5938V19.804C68.5938 18.652 68.4418 17.836 68.1378 17.356C67.8338 16.876 67.2658 16.636 66.4338 16.636C66.1778 16.636 65.9058 16.652 65.6178 16.684C65.3298 16.7 65.0738 16.724 64.8498 16.756V26.5H61.2738V14.308ZM78.4636 26.5C77.6476 24.9 76.8156 23.028 75.9676 20.884C75.1356 18.74 74.3436 16.404 73.5916 13.876H77.3836C77.5436 14.5 77.7276 15.18 77.9356 15.916C78.1596 16.636 78.3836 17.372 78.6076 18.124C78.8476 18.86 79.0796 19.58 79.3036 20.284C79.5436 20.988 79.7756 21.628 79.9996 22.204C80.2076 21.628 80.4316 20.988 80.6716 20.284C80.9116 19.58 81.1436 18.86 81.3676 18.124C81.6076 17.372 81.8316 16.636 82.0396 15.916C82.2636 15.18 82.4556 14.5 82.6156 13.876H86.3116C85.5596 16.404 84.7596 18.74 83.9116 20.884C83.0796 23.028 82.2556 24.9 81.4396 26.5H78.4636ZM87.2988 20.284C87.2988 19.164 87.4668 18.188 87.8027 17.356C88.1548 16.508 88.6108 15.804 89.1708 15.244C89.7308 14.684 90.3708 14.26 91.0908 13.972C91.8268 13.684 92.5788 13.54 93.3468 13.54C95.1388 13.54 96.5548 14.092 97.5948 15.196C98.6348 16.284 99.1548 17.892 99.1548 20.02C99.1548 20.228 99.1468 20.46 99.1308 20.716C99.1148 20.956 99.0988 21.172 99.0828 21.364H90.9708C91.0508 22.1 91.3948 22.684 92.0028 23.116C92.6108 23.548 93.4268 23.764 94.4508 23.764C95.1068 23.764 95.7468 23.708 96.3708 23.596C97.0108 23.468 97.5308 23.316 97.9308 23.14L98.4108 26.044C98.2188 26.14 97.9628 26.236 97.6428 26.332C97.3228 26.428 96.9628 26.508 96.5628 26.572C96.1788 26.652 95.7628 26.716 95.3148 26.764C94.8668 26.812 94.4188 26.836 93.9708 26.836C92.8348 26.836 91.8428 26.668 90.9948 26.332C90.1628 25.996 89.4668 25.54 88.9068 24.964C88.3628 24.372 87.9548 23.676 87.6828 22.876C87.4268 22.076 87.2988 21.212 87.2988 20.284ZM95.6988 18.916C95.6828 18.612 95.6268 18.316 95.5308 18.028C95.4508 17.74 95.3148 17.484 95.1228 17.26C94.9468 17.036 94.7148 16.852 94.4268 16.708C94.1548 16.564 93.8108 16.492 93.3948 16.492C92.9948 16.492 92.6508 16.564 92.3628 16.708C92.0748 16.836 91.8348 17.012 91.6428 17.236C91.4508 17.46 91.2988 17.724 91.1868 18.028C91.0908 18.316 91.0188 18.612 90.9708 18.916H95.6988ZM101.914 14.308C102.522 14.132 103.306 13.972 104.266 13.828C105.226 13.668 106.234 13.588 107.29 13.588C108.362 13.588 109.25 13.732 109.954 14.02C110.674 14.292 111.242 14.684 111.658 15.196C112.074 15.708 112.37 16.316 112.546 17.02C112.722 17.724 112.81 18.508 112.81 19.372V26.5H109.234V19.804C109.234 18.652 109.082 17.836 108.778 17.356C108.474 16.876 107.906 16.636 107.074 16.636C106.818 16.636 106.546 16.652 106.258 16.684C105.97 16.7 105.714 16.724 105.49 16.756V26.5H101.914V14.308ZM115.927 10.732L119.503 10.156V13.876H123.799V16.852H119.503V21.292C119.503 22.044 119.631 22.644 119.887 23.092C120.159 23.54 120.695 23.764 121.495 23.764C121.879 23.764 122.271 23.732 122.671 23.668C123.087 23.588 123.463 23.484 123.799 23.356L124.303 26.14C123.871 26.316 123.391 26.468 122.863 26.596C122.335 26.724 121.687 26.788 120.919 26.788C119.943 26.788 119.135 26.66 118.495 26.404C117.855 26.132 117.343 25.764 116.959 25.3C116.575 24.82 116.303 24.244 116.143 23.572C115.999 22.9 115.927 22.156 115.927 21.34V10.732ZM138.051 20.164C138.051 21.156 137.907 22.068 137.619 22.9C137.331 23.716 136.915 24.42 136.371 25.012C135.827 25.588 135.171 26.036 134.403 26.356C133.651 26.676 132.803 26.836 131.859 26.836C130.931 26.836 130.083 26.676 129.315 26.356C128.563 26.036 127.915 25.588 127.371 25.012C126.827 24.42 126.403 23.716 126.099 22.9C125.795 22.068 125.643 21.156 125.643 20.164C125.643 19.172 125.795 18.268 126.099 17.452C126.419 16.636 126.851 15.94 127.395 15.364C127.955 14.788 128.611 14.34 129.363 14.02C130.131 13.7 130.963 13.54 131.859 13.54C132.771 13.54 133.603 13.7 134.355 14.02C135.123 14.34 135.779 14.788 136.323 15.364C136.867 15.94 137.291 16.636 137.595 17.452C137.899 18.268 138.051 19.172 138.051 20.164ZM134.403 20.164C134.403 19.06 134.179 18.196 133.731 17.572C133.299 16.932 132.675 16.612 131.859 16.612C131.043 16.612 130.411 16.932 129.963 17.572C129.515 18.196 129.291 19.06 129.291 20.164C129.291 21.268 129.515 22.148 129.963 22.804C130.411 23.444 131.043 23.764 131.859 23.764C132.675 23.764 133.299 23.444 133.731 22.804C134.179 22.148 134.403 21.268 134.403 20.164ZM148.429 17.044C148.109 16.964 147.733 16.884 147.301 16.804C146.869 16.708 146.405 16.66 145.909 16.66C145.685 16.66 145.413 16.684 145.093 16.732C144.789 16.764 144.557 16.804 144.397 16.852V26.5H140.821V14.548C141.461 14.324 142.213 14.116 143.077 13.924C143.957 13.716 144.933 13.612 146.005 13.612C146.197 13.612 146.429 13.628 146.701 13.66C146.973 13.676 147.245 13.708 147.517 13.756C147.789 13.788 148.061 13.836 148.333 13.9C148.605 13.948 148.837 14.012 149.029 14.092L148.429 17.044ZM154.57 23.932C155.226 23.932 155.69 23.868 155.962 23.74C156.234 23.612 156.37 23.364 156.37 22.996C156.37 22.708 156.194 22.46 155.842 22.252C155.49 22.028 154.954 21.78 154.234 21.508C153.674 21.3 153.162 21.084 152.698 20.86C152.25 20.636 151.866 20.372 151.546 20.068C151.226 19.748 150.978 19.372 150.802 18.94C150.626 18.508 150.538 17.988 150.538 17.38C150.538 16.196 150.978 15.26 151.858 14.572C152.738 13.884 153.946 13.54 155.482 13.54C156.25 13.54 156.986 13.612 157.69 13.756C158.394 13.884 158.954 14.028 159.37 14.188L158.746 16.972C158.33 16.828 157.874 16.7 157.378 16.588C156.898 16.476 156.354 16.42 155.746 16.42C154.626 16.42 154.066 16.732 154.066 17.356C154.066 17.5 154.09 17.628 154.138 17.74C154.186 17.852 154.282 17.964 154.426 18.076C154.57 18.172 154.762 18.284 155.002 18.412C155.258 18.524 155.578 18.652 155.962 18.796C156.746 19.084 157.394 19.372 157.906 19.66C158.418 19.932 158.818 20.236 159.106 20.572C159.41 20.892 159.618 21.252 159.73 21.652C159.858 22.052 159.922 22.516 159.922 23.044C159.922 24.292 159.45 25.236 158.506 25.876C157.578 26.516 156.258 26.836 154.546 26.836C153.426 26.836 152.49 26.74 151.738 26.548C151.002 26.356 150.49 26.196 150.202 26.068L150.802 23.164C151.41 23.404 152.034 23.596 152.674 23.74C153.314 23.868 153.946 23.932 154.57 23.932Z" fill="white"/>
<defs>
<clipPath id="clip0_720_3904">
<rect width="36" height="36" fill="white"/>
</clipPath>
</defs>
</svg>
