<svg width="20" height="20" viewBox="0 0 20 20" fill="none" xmlns="http://www.w3.org/2000/svg">
<path fill-rule="evenodd" clip-rule="evenodd" d="M9.67661 1.66675C5.25302 1.66675 1.66699 5.17357 1.66699 9.49946C1.66699 13.8254 5.25302 17.3322 9.67661 17.3322C11.5686 17.3322 13.3073 16.6907 14.6778 15.618L17.2812 18.1573L17.3505 18.2156C17.5922 18.3905 17.9349 18.3706 18.1536 18.1562C18.3941 17.9203 18.3936 17.5384 18.1524 17.3031L15.5796 14.7937C16.8878 13.3996 17.6862 11.5407 17.6862 9.49946C17.6862 5.17357 14.1002 1.66675 9.67661 1.66675ZM9.67662 2.8732C13.4189 2.8732 16.4525 5.83988 16.4525 9.49947C16.4525 13.1591 13.4189 16.1257 9.67662 16.1257C5.93438 16.1257 2.9007 13.1591 2.9007 9.49947C2.9007 5.83988 5.93438 2.8732 9.67662 2.8732Z" fill="white"/>
</svg>
