<svg width="36" height="36" viewBox="0 0 36 36" fill="none" xmlns="http://www.w3.org/2000/svg">
<g clip-path="url(#clip0_720_1639)">
<path d="M17.9983 23.7958C21.2043 23.7958 23.8032 21.198 23.8032 17.9936C23.8032 14.7891 21.2043 12.1914 17.9983 12.1914C14.7924 12.1914 12.1935 14.7891 12.1935 17.9936C12.1935 21.198 14.7924 23.7958 17.9983 23.7958Z" fill="white"/>
<path d="M20.9538 8.84265C19.9874 9.05537 19.0038 9.18076 18.0149 9.2173C17.4283 9.23599 16.844 9.13476 16.2978 8.91983C15.7516 8.70489 15.2551 8.38076 14.8387 7.9673C14.4223 7.55384 14.0946 7.05976 13.8759 6.51531C13.6572 5.97087 13.552 5.38753 13.5668 4.80102C13.5962 3.8031 13.7161 2.8099 13.925 1.83362C14.0039 1.46865 14.1697 1.12811 14.4084 0.840881C14.6471 0.553655 14.9516 0.328233 15.296 0.183745C15.6405 0.0392576 16.0148 -0.0200335 16.387 0.0109165C16.7593 0.0418665 17.1186 0.162138 17.4345 0.361522C19.4271 1.63122 21.1238 3.31361 22.41 5.29503C22.6181 5.61055 22.746 5.97209 22.7825 6.34823C22.819 6.72437 22.7631 7.10373 22.6196 7.45336C22.4761 7.80299 22.2493 8.1123 21.959 8.35441C21.6687 8.59653 21.3237 8.76413 20.9538 8.84265Z" fill="#FF0018"/>
<path d="M30.4738 4.99296C30.9762 7.30231 30.9762 9.69263 30.4738 12.002C30.3938 12.3666 30.227 12.7065 29.9876 12.993C29.7481 13.2794 29.4431 13.5039 29.0984 13.6474C28.7536 13.7909 28.3793 13.8492 28.0072 13.8173C27.6352 13.7854 27.2763 13.6642 26.961 13.4641C26.1181 12.9293 25.3263 12.3177 24.596 11.6373C24.1678 11.236 23.8261 10.7516 23.5919 10.2137C23.3576 9.6758 23.2356 9.09575 23.2334 8.5091C23.2313 7.92245 23.3489 7.34153 23.5792 6.80192C23.8095 6.26231 24.1476 5.77538 24.5727 5.37094C25.2898 4.69304 26.067 4.08158 26.8947 3.54408C27.2105 3.32949 27.5744 3.19606 27.9541 3.15563C28.3339 3.1152 28.7177 3.16902 29.0717 3.31231C29.4256 3.4556 29.7388 3.68394 29.9833 3.9771C30.2279 4.27025 30.3964 4.61918 30.4738 4.99296Z" fill="#FF0018"/>
<path d="M35.6384 17.4298C34.3688 19.422 32.6855 21.1181 30.7027 22.4031C30.3863 22.6111 30.0239 22.7386 29.647 22.7745C29.27 22.8105 28.89 22.7537 28.54 22.6092C28.1901 22.4647 27.8807 22.2368 27.6391 21.9455C27.3974 21.6541 27.2307 21.3081 27.1534 20.9376C26.9404 19.9728 26.8149 18.9907 26.7786 18.0034C26.7613 17.4181 26.8635 16.8354 27.0789 16.2909C27.2944 15.7464 27.6186 15.2515 28.0317 14.8363C28.4449 14.4212 28.9383 14.0946 29.4819 13.8764C30.0255 13.6582 30.6079 13.553 31.1936 13.5672C32.1975 13.5956 33.1968 13.7155 34.1789 13.9253C34.5424 14.006 34.8811 14.173 35.1665 14.4121C35.4519 14.6511 35.6756 14.9553 35.8187 15.2989C35.9618 15.6425 36.0201 16.0155 35.9887 16.3863C35.9574 16.7572 35.8372 17.1151 35.6384 17.4298Z" fill="#FF862B"/>
<path d="M22.4067 31.2359C22.3646 32.2341 22.2302 33.2264 22.0053 34.1999C21.921 34.5632 21.7504 34.9007 21.508 35.1841C21.2655 35.4674 20.9583 35.6882 20.6124 35.8278C20.2665 35.9673 19.892 36.0215 19.5207 35.9857C19.1494 35.95 18.7922 35.8253 18.4793 35.6223C16.5019 34.3258 14.8265 32.6196 13.5667 30.6192C13.3628 30.3001 13.2402 29.9359 13.2094 29.5586C13.1787 29.1812 13.2407 28.802 13.3902 28.4541C13.5397 28.1062 13.7721 27.8002 14.0671 27.5627C14.3621 27.3251 14.7107 27.1634 15.0826 27.0914C16.0514 26.8927 17.0361 26.7818 18.0248 26.7599C18.6112 26.75 19.1934 26.8597 19.7359 27.0824C20.2783 27.3051 20.7697 27.636 21.1798 28.055C21.59 28.4739 21.9103 28.9721 22.1212 29.519C22.3322 30.0659 22.4293 30.6501 22.4067 31.2359Z" fill="#FFA900"/>
<path d="M11.4074 30.6123C10.6911 31.2921 9.91382 31.9047 9.08542 32.4424C8.77007 32.6519 8.40826 32.7811 8.03151 32.8187C7.65477 32.8564 7.27451 32.8014 6.92389 32.6585C6.57328 32.5157 6.26293 32.2893 6.0199 31.9991C5.77687 31.7089 5.60854 31.3637 5.52955 30.9935C5.0216 28.6865 5.01595 26.2973 5.51297 23.9878C5.59253 23.6229 5.759 23.2826 5.99826 22.9958C6.23752 22.7089 6.5425 22.484 6.88731 22.3402C7.23211 22.1963 7.60655 22.1378 7.97884 22.1695C8.35112 22.2012 8.71024 22.3223 9.02572 22.5224C9.86687 23.0583 10.6574 23.6698 11.3875 24.3492C11.8149 24.7507 12.1559 25.2351 12.3895 25.7728C12.6232 26.3105 12.7447 26.8902 12.7466 27.4765C12.7485 28.0627 12.6306 28.6432 12.4004 29.1824C12.1701 29.7215 11.8322 30.2081 11.4074 30.6123Z" fill="#FFA900"/>
<path d="M13.4672 9.01487C12.9299 9.8578 12.317 10.6502 11.6362 11.3822C11.2348 11.8096 10.7503 12.1507 10.2125 12.3845C9.67465 12.6184 9.09474 12.7402 8.50822 12.7423C7.9217 12.7445 7.34091 12.6271 6.80137 12.3972C6.26182 12.1673 5.77486 11.8298 5.37028 11.4054C4.69081 10.6888 4.07794 9.91201 3.53926 9.0845C3.32825 8.76915 3.19779 8.4069 3.15933 8.02948C3.12086 7.65205 3.17555 7.27096 3.3186 6.91955C3.46165 6.56815 3.68869 6.25715 3.97986 6.01379C4.27104 5.77043 4.61747 5.60214 4.98881 5.52363C7.29798 5.0165 9.68905 5.00972 12.0011 5.50373C12.3661 5.58325 12.7066 5.74965 12.9936 5.9888C13.2805 6.22795 13.5055 6.53281 13.6495 6.87745C13.7934 7.2221 13.852 7.59636 13.8202 7.96847C13.7885 8.34059 13.6674 8.69954 13.4672 9.01487Z" fill="#00B598"/>
<path d="M31.0344 30.4529C28.7266 30.9675 26.3351 30.9799 24.0221 30.4894C23.6534 30.4142 23.3086 30.2506 23.0172 30.0126C22.7259 29.7746 22.4968 29.4694 22.3496 29.1233C22.2024 28.7772 22.1415 28.4005 22.1723 28.0257C22.203 27.6509 22.3245 27.2891 22.5261 26.9716C23.0634 26.1287 23.6763 25.3363 24.3571 24.6043C24.7586 24.1769 25.243 23.8358 25.7808 23.602C26.3187 23.3681 26.8986 23.2463 27.4851 23.2442C28.0716 23.242 28.6524 23.3594 29.1919 23.5893C29.7315 23.8192 30.2185 24.1567 30.623 24.5811C31.3013 25.2979 31.913 26.0747 32.4507 26.902C32.6596 27.2149 32.7892 27.5739 32.8284 27.948C32.8676 28.322 32.8153 28.7 32.676 29.0494C32.5366 29.3988 32.3144 29.7091 32.0284 29.9536C31.7424 30.1981 31.4013 30.3695 31.0344 30.4529Z" fill="#FF862B"/>
<path d="M4.81536 22.6075C3.8113 22.5808 2.8119 22.4609 1.83001 22.2495C1.46275 22.1699 1.12031 22.0024 0.832077 21.7614C0.543846 21.5204 0.31844 21.213 0.175226 20.8657C0.0320124 20.5185 -0.0247332 20.1416 0.00985917 19.7676C0.0444515 19.3936 0.169337 19.0336 0.373816 18.7184C1.6451 16.7242 3.33211 15.0278 5.31956 13.7451C5.63648 13.5421 5.99801 13.4192 6.37302 13.387C6.74803 13.3547 7.12527 13.414 7.47224 13.5599C7.81921 13.7057 8.12551 13.9337 8.36475 14.2241C8.60399 14.5146 8.76902 14.8588 8.84559 15.2272C9.0559 16.1901 9.18023 17.1698 9.21709 18.1548C9.23661 18.7403 9.13652 19.3236 8.9229 19.8692C8.70929 20.4147 8.38665 20.911 7.9747 21.3278C7.56274 21.7445 7.07011 22.0729 6.52691 22.2929C5.98371 22.513 5.40134 22.62 4.81536 22.6075Z" fill="#00B598"/>
</g>
<defs>
<clipPath id="clip0_720_1639">
<rect width="36" height="36" fill="white"/>
</clipPath>
</defs>
</svg>
